<svg width="192" height="192" viewBox="0 0 192 192" fill="none" xmlns="http://www.w3.org/2000/svg">
<rect width="192" height="192" rx="25" fill="#DE2424"/>
<path d="M115.905 37.4376C108.819 33.8031 99.1579 25.4639 90.4356 9C99.1579 25.4639 113.811 32.0744 120.44 35.1925C136.141 42.5776 144.987 43.8622 148.825 57.3326C152.663 70.803 146.956 77.1005 138.583 89.4484C130.209 101.796 125.294 114.144 124.627 130.982C121.138 114.144 131.605 95.4353 138.583 84.9583C145.561 74.4813 145.617 66.0517 145.37 61.9357C144.582 48.8394 127.767 43.5221 115.905 37.4376Z" fill="#EBFF00" stroke="#EBFF00" stroke-width="0.5"/>
<path d="M138.785 116.789C149.841 105.742 150.648 84.1841 150.187 76.5123C150.648 84.1841 153.296 105.742 142.24 116.789C128.421 130.599 124.275 145.942 125.311 157.834C124.275 145.942 124.966 130.599 138.785 116.789Z" fill="#EBFF00" stroke="#EBFF00" stroke-width="0.5"/>
<path d="M138.427 149.011C149.483 137.964 150.289 116.406 149.828 108.734C150.289 116.406 152.938 137.964 141.882 149.011C128.062 162.82 123.258 170.109 124.294 182C123.258 170.109 124.607 162.82 138.427 149.011Z" fill="#EBFF00" stroke="#EBFF00" stroke-width="0.5"/>
<path d="M139.244 72.5564C132.329 85.2115 122.55 90.5463 116.189 90.5463C112.396 90.5463 102.446 81.3468 97.9539 72.5564C93.4616 63.766 91.4627 48.1755 90.4356 36.8172C91.4627 48.1755 93.4616 61.5598 97.9539 70.3502C102.446 79.1406 112.396 89.022 116.189 89.022C122.55 89.022 130.674 83.7307 139.244 72.5564Z" fill="black" stroke="black" stroke-width="0.5"/>
<path d="M87.0824 110.742C103.31 110.133 107.574 94.3568 107.574 87.4978C107.574 94.3568 106.861 108.33 91.1808 112.648C81.4937 115.315 67.7081 109.98 55.0404 121.793C53.7182 123.026 49.0791 129.033 47.2162 138.559C49.0791 129.033 47.6371 136.143 49.8242 126.747C53.6966 110.11 83.4246 111.377 87.0824 110.742Z" fill="black" stroke="black" stroke-width="0.5"/>
<path d="M67.7081 143.855C52.2871 146.11 44.1114 147.227 42 142.712C44.1114 147.227 52.0187 148.237 66.2178 146.904C80.417 145.571 85.8909 142.712 94.1615 142.712C102.358 142.712 115.794 147.09 120.242 152.62C115.794 147.09 111.47 144.797 103.476 141.569C91.968 136.921 81.5076 141.838 67.7081 143.855Z" fill="black" stroke="black" stroke-width="0.5"/>
</svg>
